HIERARCHY
ROOT Hips
{
  OFFSET 0.0 0.0 0.0
  CHANNELS 6 XPOSITION YPOSITION ZPOSITION ZROTATION XROTATION YROTATION 
  JOINT RightUpLeg
  {
    OFFSET -0.08945800000000001 -0.0866707 0.0010165200000000001
    CHANNELS 3 ZROTATION XROTATION YROTATION 
    JOINT RightLeg
    {
      OFFSET 0.0 -0.444227 0.013727000000000001
      CHANNELS 3 ZROTATION XROTATION YROTATION 
      JOINT RightFoot
      {
        OFFSET 0.0025354900000000005 -0.42092399999999996 -0.014605900000000002
        CHANNELS 3 ZROTATION XROTATION YROTATION 
        End Site
        {
          OFFSET 0.0004 -0.0441509 0.08499100000000001
        }
      }
    }
  }
  JOINT Spine
  {
    OFFSET 0.0 0.118905 0.0
    CHANNELS 3 ZROTATION XROTATION YROTATION 
    JOINT Spine1
    {
      OFFSET 0.0 0.25657399999999997 0.00127663
      CHANNELS 3 ZROTATION XROTATION YROTATION 
      End Site
      {
        OFFSET -0.0029 0.21508359999999999 0.02525291
      }
      JOINT RightArm
      {
        OFFSET -0.162727 -0.05365632 0.0010212299999999997
        CHANNELS 3 ZROTATION XROTATION YROTATION 
        JOINT RightForeArm
        {
          OFFSET -0.26364 0.00099144 -0.0142434
          CHANNELS 3 ZROTATION XROTATION YROTATION 
          End Site
          {
            OFFSET -0.220324 0.0008536199999999999 0.010221599999999999
          }
        }
      }
      JOINT LeftArm
      {
        OFFSET 0.162727 -0.053656319900000006 0.0010212299999999997
        CHANNELS 3 ZROTATION XROTATION YROTATION 
        JOINT LeftForeArm
        {
          OFFSET 0.26259699999999997 0.00099144 -0.0142434
          CHANNELS 3 ZROTATION XROTATION YROTATION 
          End Site
          {
            OFFSET 0.220902 0.0008536199999999999 0.010221599999999999
          }
        }
      }
    }
  }
  JOINT LeftUpLeg
  {
    OFFSET 0.08945800000000001 -0.0866707 0.0010165200000000001
    CHANNELS 3 ZROTATION XROTATION YROTATION 
    JOINT LeftLeg
    {
      OFFSET 0.0 -0.444227 0.013727000000000001
      CHANNELS 3 ZROTATION XROTATION YROTATION 
      JOINT LeftFoot
      {
        OFFSET -0.0025354900000000005 -0.42092399999999996 -0.014605900000000002
        CHANNELS 3 ZROTATION XROTATION YROTATION 
        End Site
        {
          OFFSET -0.0004 -0.0441509 0.08499100000000001
        }
      }
    }
  }
}
MOTION
Frames: 8
Frame Time: 0.041667
-1.98559 1.0201900000000002 0.0420038 -1.337631717574702 -0.51414489101109 92.41748648950166 1.5537899158892687 -3.580459868114731 -0.7321560449422873 -1.5029900637721816 13.240600036278396 -5.633440135909906 -2.1502650000211934 -34.89941846988126 1.3432153972211873 0.2552789872398877 0.3246470021003454 0.2277290190162446 -3.042810001652953 0.2073939983923828 0.7953589869835888 1.5018282912830447 -32.60846032413768 -18.12034331142938 -6.3073800239569415 10.63000013643562 8.72524991466853 10.886559117134222 -41.43518550553144 12.161279883254641 1.0713999083508905 12.13159929621635 -2.6038599972358556 0.5021905658596867 -2.380403314906307 0.6214703214821448 2.232560028339973 9.836940041716268 7.29394450050463 -0.3664655289848361 -33.19074761125961 -1.4052458946027737 
-1.98583 1.0201900000000002 0.042107 -1.3239966322789465 -0.5171411029009041 92.49065830608 1.5578499297423125 -3.5502098140543907 -0.7346159802605498 -1.4932300436133508 13.188499353289538 -5.697579881084557 -2.096806390047973 -34.86597786370488 1.3404158734351284 0.24515800759167752 0.3001370016658869 0.23098800642611916 -3.0796300573646107 0.22636199400646356 0.8056049644296954 1.5584433024264575 -32.54236458353947 -18.155552936600795 -6.293380270592531 10.5906001902084 8.74904970883144 10.706955024040505 -41.47522748954064 11.940824428735079 1.0652300063745475 12.133000338769849 -2.697079913132071 0.49115639525553106 -2.3760189737893933 0.5855603351165383 2.2768499631260974 9.825630102224373 7.2500443133880195 -0.3998611252818052 -33.15221851415156 -1.402057050034024 
-1.9865199999999998 1.0201900000000002 0.042368100000000006 -1.3231727407103138 -0.5265076934913716 92.49016653245975 1.5834900329997172 -3.587559849756959 -0.7083469659909749 -1.4893300055972736 13.171499012445377 -5.7240297886454305 -2.1246654510119853 -34.81767135079996 1.3363763501495947 0.19813499662155615 0.21860899558677185 0.2937790293635306 -3.040600222013042 0.36048799288316424 0.8662489867706221 1.5848791227221686 -32.68140332937883 -18.168057305423797 -6.467390011869184 10.899199235966977 8.704620182054153 10.33356395004154 -41.6294155949591 11.557124891731272 1.0948800710049844 12.508900653515147 -2.819810088224149 0.5101007786922077 -2.409445919587436 0.5840605749851916 2.2939898959614213 9.802129982611298 7.254244025953931 -0.4245678405004454 -33.101009170849395 -1.397823293243968 
-1.9877000000000002 1.0201900000000002 0.0427125 -1.3932257221589033 -0.5535172496773639 92.37798750553146 1.6447499996655617 -3.781030080639448 -0.6166889756197244 -1.5050599312558128 13.22760047874057 -5.710970466952366 -2.186092330425672 -34.773705423112595 1.3329331877559678 0.19105099655476868 0.22084500208587832 0.389265020599456 -3.020539956420715 0.4025449894192235 0.9594749858040666 1.6853411735727126 -32.939925989463816 -18.03636955067866 -6.6507998009910665 11.347099989847965 8.688039897843947 9.906653221253649 -41.76806843511036 11.128254752425232 1.070860003241342 13.067199462498344 -2.940109996632172 0.5752276462844842 -2.605237347570671 0.6368166893301056 2.2562601444296826 9.900370300990884 7.32304452146347 -0.4079245904838284 -33.09317835896597 -1.3971761328201093 
-1.98893 1.0201900000000002 0.043018400000000005 -1.4791144971981673 -0.6051557209584818 92.2479680244911 1.7379999043611012 -3.9785100594515574 -0.48839000855911724 -1.536399934097299 13.24399976293777 -5.707309912444063 -2.1823971980846952 -34.69036686995468 1.331696710072784 0.2890000046982109 0.35183200877064247 0.44825501658332895 -3.115129965575752 0.28356298735589563 1.026710087333203 1.9260315971169673 -33.065799545677976 -17.736580595175752 -6.628039903129292 11.818899575634827 8.837919861443414 9.572486216110775 -41.75237266039767 10.808840955889586 0.928980005428958 13.262300401045172 -3.069459905690462 0.665558765687754 -2.878660919103683 0.7063037255729362 2.2196200215139723 10.11580044382861 7.390843540485955 -0.40709032022930836 -33.11524670017429 -1.398999686606797 
-1.98987 1.02017 0.0432677 -1.510734537795624 -0.6447499540510755 92.0682589172389 1.8182198358326662 -4.085849897352893 -0.37317800411337193 -1.576099981761175 13.224999884214087 -5.626600128342961 -2.177203052664312 -34.61151575108147 1.3307043049307221 0.40551798933803024 0.5297319696664408 0.49728099386776975 -3.212630062204038 0.1496369982960426 1.0824400553705698 2.1571325417882297 -33.21263495245491 -17.357643407570738 -6.554369909628357 12.459599494312348 9.104210154161994 9.384807131870812 -41.851584573186685 10.687613635858321 0.9191110224085243 13.5737006781371 -3.0939200937687468 0.7290577537408931 -3.0304885538336617 0.7619813999744702 2.2100101587951757 10.249200014734482 7.517743332622914 -0.4480115310115886 -33.13187479570868 -1.400374795785791 
-1.99079 1.02008 0.04354790000000001 -1.541522362531397 -0.6396333953107954 91.8546993924601 1.840099919951979 -4.226000256479677 -0.3170620236661934 -1.5990499509809468 13.277900553109482 -5.451430108681052 -2.2358534601803886 -34.60234622212073 1.3318897696385426 0.4442550070093609 0.7113049715101193 0.5614539828537717 -3.2371500144375607 0.008759760132471 1.1479200117264243 2.3701272953000228 -33.50016201085035 -17.09403567164868 -6.5540698081916995 13.202199858990937 9.57694035322327 9.17524326775648 -42.13592193323973 10.61148178604842 1.062339982581986 14.252700028811825 -3.146869854648801 0.7364996183675923 -3.0955800431804716 0.7778401920927407 2.2045899768019477 10.20950039395743 7.723744399311438 -0.4249171673238945 -33.11207407730482 -1.3987375780973978 
-1.99183 1.0200500000000001 0.0439014 -1.6437554600893842 -0.6330582176567474 91.74355855428566 1.850149902985418 -4.441260071474976 -0.294900994656411 -1.5977600057231665 13.33639941580335 -5.340749881388757 -2.3014888033398604 -34.57608414476203 1.3313667265585076 0.42683202152987815 0.7595070038650744 0.5956960156797199 -3.221759890690229 -0.025218098952318444 1.1837699671325286 2.653379295605271 -33.989142083720736 -17.10472491769975 -6.498009749918351 14.448098934361195 10.625599787062837 8.683566977711235 -42.226589279377066 10.469165403181098 0.9905290811957643 14.501400023096682 -3.620559908731876 0.7427989204121952 -3.257471534765641 0.7660484574600955 2.1968701554925407 10.177900523762366 7.864444588666408 -0.3565418244097629 -33.07182035743134 -1.3954121297452478 
